<svg version="1.2" xmlns="http://www.w3.org/2000/svg" viewBox="0 0 50 50" width="50" height="50">
	<title>Icon-Laptop</title>
	<style>
		.s0 { fill: #fed136 } 
	</style>
	<path id="Icon-Laptop" fill-rule="evenodd" class="s0" d="m12.4 8.9h26.9c2.2 0 4 1.8 4 4v17.5q0 0.7-0.2 1.4h0.2v2.7h-4v-21.6h-26.9v21.6h-4.1v-2.7h0.3q-0.3-0.7-0.3-1.4v-17.5c0-2.2 1.8-4 4.1-4zm-4.1 28.3h35c1.5 0 2.7 1.2 2.7 2.6c0 1.5-2.6 2.7-4 2.7h-32.3c-1.5 0-4.1-1.2-4.1-2.7c0-1.4 1.2-2.6 2.7-2.6zm12.1 3.3c0 0.4 0.6 0.7 1.4 0.7h8c0.8 0 1.4-0.3 1.4-0.7c0-0.4-0.6-0.7-1.4-0.7h-8c-0.8 0-1.4 0.3-1.4 0.7zm-3.6-15.8l1.9-1.9c0.5-0.5 1.3-0.5 1.9 0l2.4 2.5l8.1-8.1c0.5-0.5 1.3-0.5 1.8 0l1.9 1.9c0.6 0.6 0.6 1.4 0 1.9l-10.4 10.5c-0.4 0.5-1.1 0.5-1.6 0.2c-0.5 0.1-0.9 0-1.3-0.4l-4.7-4.7c-0.5-0.5-0.5-1.4 0-1.9z" />
</svg>