<svg version="1.2" xmlns="http://www.w3.org/2000/svg" viewBox="0 0 50 50" width="50" height="50">
	<title>Icon-Locked</title>
	<style>
		.s0 { fill: #fed136 } 
	</style>
	<path id="Icon-Locked" fill-rule="evenodd" class="s0" d="m24.7 7.6c5.1 0 9.3 3.7 9.3 8.2v9.3h1.2c1.9 0 3.5 1.6 3.5 3.5v12.9c0 1.9-1.6 3.5-3.5 3.5h-21c-1.9 0-3.5-1.6-3.5-3.5v-12.9c0-1.9 1.6-3.5 3.5-3.5h1.2v-9.3c0-4.5 4.1-8.2 9.3-8.2zm-4.7 8.2v8.2q0 0.6 0.3 1.1h8.8q0.2-0.5 0.3-1.1v-8.2c0-1.9-2.1-3.5-4.7-3.5c-2.6 0-4.7 1.6-4.7 3.5zm2.4 23.3c0 1.3 1 2.4 2.3 2.4c1.3 0 2.3-1.1 2.3-2.4v-1.8c1.4-0.8 2.4-2.3 2.4-4c0-2.6-2.1-4.7-4.7-4.7c-2.6 0-4.7 2.1-4.7 4.7c0 1.7 1 3.2 2.4 4z" />
</svg>